<svg width="575" height="132" viewBox="0 0 575 132" fill="none" xmlns="http://www.w3.org/2000/svg">
<circle cx="66" cy="66" r="61" stroke="black" stroke-width="10"/>
<path d="M155.819 106V26.7273H185.546C191.636 26.7273 196.746 27.7853 200.874 29.9013C205.029 32.0173 208.164 34.9848 210.28 38.804C212.422 42.5973 213.493 47.0228 213.493 52.0806C213.493 57.1642 212.409 61.5768 210.241 65.3185C208.1 69.0344 204.939 71.9117 200.758 73.9503C196.578 75.9631 191.443 76.9695 185.353 76.9695H164.18V65.0476H183.417C186.978 65.0476 189.894 64.5573 192.165 63.5767C194.436 62.5703 196.113 61.1123 197.197 59.2028C198.307 57.2674 198.862 54.8933 198.862 52.0806C198.862 49.2679 198.307 46.868 197.197 44.881C196.087 42.8683 194.397 41.3458 192.126 40.3136C189.856 39.2556 186.927 38.7266 183.34 38.7266H170.179V106H155.819ZM196.771 70.0795L216.396 106H200.371L181.095 70.0795H196.771ZM226.711 106V26.7273H278.27V38.7653H241.072V60.2866H275.599V72.3246H241.072V93.962H278.579V106H226.711ZM303.1 106H287.772L315.68 26.7273H333.408L361.355 106H346.027L324.854 42.9844H324.235L303.1 106ZM303.604 74.918H345.408V86.4528H303.604V74.918ZM435.925 53.4741H421.448C421.035 51.1 420.274 48.9969 419.165 47.1648C418.055 45.3068 416.674 43.7327 415.023 42.4425C413.371 41.1522 411.488 40.1845 409.372 39.5394C407.281 38.8685 405.023 38.533 402.598 38.533C398.288 38.533 394.469 39.6168 391.14 41.7844C387.812 43.9263 385.205 47.0745 383.322 51.229C381.438 55.3578 380.496 60.4027 380.496 66.3636C380.496 72.4278 381.438 77.5372 383.322 81.6918C385.231 85.8205 387.837 88.9429 391.14 91.0589C394.469 93.1491 398.276 94.1942 402.559 94.1942C404.933 94.1942 407.152 93.8846 409.217 93.2653C411.307 92.6201 413.178 91.6783 414.829 90.4396C416.507 89.201 417.913 87.6785 419.048 85.8722C420.21 84.0658 421.01 82.0014 421.448 79.679L435.925 79.7564C435.383 83.5239 434.209 87.0592 432.403 90.3622C430.622 93.6652 428.287 96.5812 425.396 99.1101C422.506 101.613 419.126 103.574 415.255 104.994C411.384 106.387 407.088 107.084 402.366 107.084C395.398 107.084 389.179 105.471 383.709 102.245C378.238 99.0198 373.929 94.362 370.78 88.272C367.632 82.1821 366.058 74.8793 366.058 66.3636C366.058 57.8222 367.645 50.5194 370.819 44.4553C373.993 38.3653 378.315 33.7075 383.786 30.4819C389.257 27.2563 395.45 25.6435 402.366 25.6435C406.778 25.6435 410.881 26.2628 414.675 27.5014C418.468 28.7401 421.848 30.5593 424.816 32.9592C427.783 35.3332 430.222 38.2492 432.132 41.707C434.067 45.1391 435.331 49.0614 435.925 53.4741ZM449.076 106V26.7273H463.436V60.2866H500.169V26.7273H514.569V106H500.169V72.3246H463.436V106H449.076Z" fill="black"/>
</svg>
